:SAMPLES-PER-SECOND 30
:FULLY-SPECIFIED
:DEGREES
126
root  -23.34844484 38.34866802 47.11799922 3.220590115 -1.933139086 4.646890163
lowerback  7.281129837 -1.85382998 -3.858710051
upperback  1.064110041 -2.64508009 4.112420082
thorax  -2.606319904 -1.274880052 6.71807003
lowerneck  -14.05949974 6.826789856 -0.2016949952
upperneck  27.19599915 9.647450447 0.3930494487
head  11.07769966 4.407589912 1.476770163
lclavicle  0 -5.34481991e-014 2.981770104e-014
lhumerus  -26.86440086 -0.33495906 90.21659851
lradius  0.003583191894 6.643666666e-007 30.97589874
lwrist  -1.645157397e-007 -3.533851896e-007 -6.874159813
lhand  -5.505032044e-031 -15.8135004 33.60620117
lfingers  90 7.125020027 -90
lthumb  93.41605384 18.01962653 79.07819387
rclavicle  0 -5.34481991e-014 2.981770104e-014
rhumerus  -42.69680023 -24.67649841 -65.68039703
rradius  -1.296506525e-006 2.359789448e-007 40.8932991
rwrist  -2.281664457e-008 -8.593936229e-009 14.15499973
rhand  -1.345748685e-031 10.2737999 9.996669769
rfingers  -90 -7.125020027 -90
rthumb  -72.52445805 -22.91766803 -51.04506765
rfemur  -35.20209885 -0.9544580579 16.82510185
rtibia  9.670418422e-007 1.119611625e-006 42.32341003
rfoot  2.556521167e-006 -12.53091049 -1.451499701
rtoes  2.336001174 19.8686595 -96.84438506
lfemur  4.502986908 -2.965951681 -29.51429367
ltibia  -3.641206786e-005 2.004581745e-007 27.47512245
lfoot  -5.693161143e-007 -11.79000854 -0.8838837743
ltoes  -5.298979543 -19.31302686 -105.6655569
127
root  -23.37644382 38.4128901 47.4013321 3.4697299 -2.282240391 4.909220219
lowerback  7.144330025 -1.75593996 -3.945709944
upperback  1.069910049 -2.51880002 4.103859901
thorax  -2.538569927 -1.213400006 6.741730213
lowerneck  -13.84749985 6.907410145 0.01093120035
upperneck  26.86129951 9.730199814 0.2513613403
head  10.93050003 4.460070133 1.383960009
lclavicle  0 -5.34481991e-014 2.981770104e-014
lhumerus  -27.31100082 -0.5246448517 90.33840179
lradius  0.003583191894 6.643666666e-007 30.82620049
lwrist  -1.645157397e-007 -3.533851896e-007 -6.114630222
lhand  -5.505032044e-031 -15.8135004 33.60620117
lfingers  90 7.125020027 -90
lthumb  93.41605384 18.01962653 79.07819387
rclavicle  0 -5.34481991e-014 2.981770104e-014
rhumerus  -42.95909882 -24.77160072 -65.61470032
rradius  -1.296506525e-006 2.359789448e-007 41.25799942
rwrist  -2.281664457e-008 -8.593936229e-009 13.75380039
rhand  -1.345748685e-031 10.2737999 9.996669769
rfingers  -90 -7.125020027 -90
rthumb  -72.52445805 -22.91766803 -51.04506765
rfemur  -35.01851273 -0.8578975201 16.61000633
rtibia  9.670418422e-007 1.119611625e-006 42.1329155
rfoot  2.556521167e-006 -12.60610485 -1.435099244
rtoes  2.336001174 19.8686595 -96.84438506
lfemur  3.397336006 -2.747822285 -29.71419334
ltibia  -3.641206786e-005 2.004581745e-007 29.43233109
lfoot  -5.693161143e-007 -10.57001495 -1.434980154
ltoes  -5.298979543 -19.31302686 -105.6655569
128
root  -23.41355602 38.48044328 47.68333435 3.681509972 -2.607659101 4.990399837
lowerback  7.169000149 -1.658830047 -3.912709951
upperback  1.002500057 -2.384789944 4.161260128
thorax  -2.640799999 -1.141479969 6.776410103
lowerneck  -13.67580032 6.949230194 0.1683589965
upperneck  26.79829979 9.769630432 0.1616138071
head  10.88780022 4.486460209 1.322970033
lclavicle  0 -5.34481991e-014 2.981770104e-014
lhumerus  -28.06839943 -0.6283857226 90.43360138
lradius  0.003583191894 6.643666666e-007 30.81800079
lwrist  -1.645157397e-007 -3.533851896e-007 -5.513169765
lhand  -5.505032044e-031 -15.8135004 33.60620117
lfingers  90 7.125020027 -90
lthumb  93.41605384 18.01962653 79.07819387
rclavicle  0 -5.34481991e-014 2.981770104e-014
rhumerus  -43.21730042 -24.77769852 -65.52700043
rradius  -1.296506525e-006 2.359789448e-007 41.40430069
rwrist  -2.281664457e-008 -8.593936229e-009 13.52740002
rhand  -1.345748685e-031 10.2737999 9.996669769
rfingers  -90 -7.125020027 -90
rthumb  -72.52445805 -22.91766803 -51.04506765
rfemur  -34.74290085 -0.6690695882 16.60029793
rtibia  9.670418422e-007 1.119611625e-006 41.89619064
rfoot  2.556521167e-006 -12.71739101 -1.569030404
rtoes  2.336001174 19.8686595 -96.84438506
lfemur  2.123173714 -2.450250387 -29.6398983
ltibia  -3.641206786e-005 2.004581745e-007 31.57340813
lfoot  -5.693161143e-007 -9.2267313 -2.205960512
ltoes  -5.298979543 -19.31302686 -105.6655569
129
root  -23.44466682 38.55600132 47.95288927 3.807310104 -2.855120659 4.928110123
lowerback  7.391580105 -1.552710056 -3.700069904
upperback  0.9845430255 -2.227289915 4.260910034
thorax  -2.810990095 -1.058380008 6.757840157
lowerneck  -13.75109959 6.951189995 0.1833309978
upperneck  26.8321991 9.77328968 0.1496972442
head  10.91689968 4.486430168 1.321390033
lclavicle  0 -5.34481991e-014 2.981770104e-014
lhumerus  -28.74629974 -0.7593269944 90.55120087
lradius  0.003583191894 6.643666666e-007 30.85569954
lwrist  -1.645157397e-007 -3.533851896e-007 -5.136640072
lhand  -5.505032044e-031 -15.8135004 33.60620117
lfingers  90 7.125020027 -90
lthumb  93.41605384 18.01962653 79.07819387
rclavicle  0 -5.34481991e-014 2.981770104e-014
rhumerus  -43.36029816 -25.03550148 -65.25060272
rradius  -1.296506525e-006 2.359789448e-007 41.05130005
rwrist  -2.281664457e-008 -8.593936229e-009 13.61900043
rhand  -1.345748685e-031 10.2737999 9.996669769
rfingers  -90 -7.125020027 -90
rthumb  -72.52445805 -22.91766803 -51.04506765
rfemur  -34.2448082 -0.5478782058 16.73450089
rtibia  9.670418422e-007 1.119611625e-006 41.55181503
rfoot  2.556521167e-006 -13.06660843 -1.628991723
rtoes  2.336001174 19.8686595 -96.84438506
lfemur  0.7279856205 -2.095340967 -29.36729622
ltibia  -3.641206786e-005 2.004581745e-007 33.88292313
lfoot  -5.693161143e-007 -7.434849739 -3.201031208
ltoes  -5.298979543 -19.31302686 -105.6655569
130
root  -23.47177821 38.62577724 48.21244488 3.822050095 -3.209480286 4.734789848
lowerback  7.637800217 -1.385450006 -3.336950064
upperback  1.109109998 -1.976950049 4.363230228
thorax  -2.863569975 -0.9377139807 6.642509937
lowerneck  -13.87349987 6.925109863 0.2236939967
upperneck  26.74020004 9.744029999 0.07357545197
head  10.91359997 4.468229771 1.287149906
lclavicle  0 -5.34481991e-014 2.981770104e-014
lhumerus  -29.09379959 -0.9286971688 90.61440277
lradius  0.003583191894 6.643666666e-007 30.81240082
lwrist  -1.645157397e-007 -3.533851896e-007 -4.966780186
lhand  -5.505032044e-031 -15.8135004 33.60620117
lfingers  90 7.125020027 -90
lthumb  93.41605384 18.01962653 79.07819387
rclavicle  0 -5.34481991e-014 2.981770104e-014
rhumerus  -43.26259995 -25.1174984 -65.33380127
rradius  -1.296506525e-006 2.359789448e-007 41.04389954
rwrist  -2.281664457e-008 -8.593936229e-009 13.43970013
rhand  -1.345748685e-031 10.2737999 9.996669769
rfingers  -90 -7.125020027 -90
rthumb  -72.52445805 -22.91766803 -51.04506765
rfemur  -33.74190903 -0.3755334914 17.01950073
rtibia  9.670418422e-007 1.119611625e-006 41.23100662
rfoot  2.556521167e-006 -13.27169895 -1.354652047
rtoes  2.336001174 19.8686595 -96.84438506
lfemur  -0.7011027932 -1.424320579 -28.90569878
ltibia  -3.641206786e-005 2.004581745e-007 36.31871796
lfoot  -5.693161143e-007 -5.259317875 -4.310230732
ltoes  -5.298979543 -19.31302686 -105.6655569
131
root  -23.49355653 38.69999863 48.49644458 3.8123703 -3.681267977 4.278550148
lowerback  7.780310154 -1.195639968 -2.712879896
upperback  1.297819972 -1.67177999 4.534619808
thorax  -2.802239895 -0.7965329885 6.43776989
lowerneck  -13.93340015 6.940869808 0.2731289864
upperneck  26.47310066 9.772939682 -0.03397028148
head  10.8348999 4.478789806 1.240180254
lclavicle  0 -5.34481991e-014 2.981770104e-014
lhumerus  -29.53969955 -1.133529902 90.67009735
lradius  0.003583191894 6.643666666e-007 31.01260185
lwrist  -1.645157397e-007 -3.533851896e-007 -4.908520222
lhand  -5.505032044e-031 -15.8135004 33.60620117
lfingers  90 7.125020027 -90
lthumb  93.41605384 18.01962653 79.07819387
rclavicle  0 -5.34481991e-014 2.981770104e-014
rhumerus  -43.19110107 -25.30240059 -65.35140228
rradius  -1.296506525e-006 2.359789448e-007 41.21020126
rwrist  -2.281664457e-008 -8.593936229e-009 13.58390045
rhand  -1.345748685e-031 10.2737999 9.996669769
rfingers  -90 -7.125020027 -90
rthumb  -72.52445805 -22.91766803 -51.04506765
rfemur  -33.33890152 -0.1077910364 17.57740211
rtibia  9.670418422e-007 1.119611625e-006 40.91529083
rfoot  2.556521167e-006 -13.19689274 -0.8565072417
rtoes  2.336001174 19.8686595 -96.84438506
lfemur  -2.075796604 -0.5968620777 -28.16519547
ltibia  -3.641206786e-005 2.004581745e-007 38.80610657
lfoot  -5.693161143e-007 -3.143161297 -5.406919479
ltoes  -5.298979543 -19.31302686 -105.6655569
